#N canvas 18 6 515 560 12;
#X text 19 7 Ejemplo de envio;
#X text 315 7 Ejemplo de recepción;
#X msg 51 139 send /test 1;
#X msg 126 418 send /test \$1;
#X obj 106 260 symbol;
#X symbolatom 144 395 15 0 0 0 - - -;
#X msg 126 345 list hola mundo!;
#X msg 106 311 send /test \$1;
#X msg 106 235 Texto!;
#X symbolatom 119 286 15 0 0 0 - - -;
#X obj 126 370 makesymbol %s_%s;
#X obj 315 102 unpackOSC;
#X obj 315 49 udpreceive 12000;
#X obj 315 158 routeOSC /clic /posx /posy;
#X floatatom 374 194 5 0 0 0 - - -;
#X floatatom 434 194 5 0 0 0 - - -;
#X obj 315 193 tgl 20 0 empty empty empty 17 7 0 10 -262144 -1 -1 0
1;
#X obj 10 527 udpsend;
#X msg 73 198 send /test \$1;
#X floatatom 73 174 5 0 0 0 - - -;
#X obj 51 493 packOSC;
#X msg 22 81 disconnect;
#X msg 10 49 connect localhost 7700;
#X connect 2 0 20 0;
#X connect 3 0 20 0;
#X connect 4 0 7 0;
#X connect 4 0 9 0;
#X connect 6 0 10 0;
#X connect 7 0 20 0;
#X connect 8 0 4 0;
#X connect 10 0 3 0;
#X connect 10 0 5 0;
#X connect 11 0 13 0;
#X connect 12 0 11 0;
#X connect 13 0 16 0;
#X connect 13 1 14 0;
#X connect 13 2 15 0;
#X connect 18 0 20 0;
#X connect 19 0 18 0;
#X connect 20 0 17 0;
#X connect 21 0 17 0;
#X connect 22 0 17 0;
