#N canvas 501 115 716 487 10;
#X msg 37 94 disconnect;
#X obj 29 457 tgl 15 0 empty empty empty 17 7 0 10 -258113 -4034 -1
1 1;
#X obj 29 430 udpsend;
#X msg 29 70 connect localhost 9997;
#X text 80 49 UDP;
#X obj 46 397 packOSC;
#X msg 60 375 send /test/mute;
#X obj 347 38 sfplayer;
#X obj 339 96 dac~;
#X obj 405 78 fiddle~ 1024 1;
#X msg 56 346 send /voz1/pico \$1;
#X obj 466 263 + 1;
#X floatatom 432 314 5 0 0 0 - - -;
#X obj 432 238 bng 15 250 50 0 empty empty empty 17 7 0 10 -262144
-1 -1;
#X obj 432 289 mod 2;
#X floatatom 459 169 5 0 0 0 - - -;
#X obj 432 263 f;
#X obj 459 100 i;
#X obj 459 123 average;
#X obj 459 146 change;
#X msg 46 316 send /voz1/amp \$1;
#X obj 459 190 + 1;
#X obj 459 211 log;
#X connect 0 0 2 0;
#X connect 2 0 1 0;
#X connect 3 0 2 0;
#X connect 5 0 2 0;
#X connect 6 0 5 0;
#X connect 7 0 8 0;
#X connect 7 0 8 1;
#X connect 7 0 9 0;
#X connect 9 1 13 0;
#X connect 9 2 17 0;
#X connect 10 0 5 0;
#X connect 11 0 16 1;
#X connect 12 0 10 0;
#X connect 13 0 16 0;
#X connect 14 0 12 0;
#X connect 15 0 21 0;
#X connect 16 0 11 0;
#X connect 16 0 14 0;
#X connect 17 0 18 0;
#X connect 18 0 19 0;
#X connect 19 0 15 0;
#X connect 20 0 5 0;
#X connect 21 0 22 0;
#X connect 22 0 20 0;
