#N canvas 359 116 675 354 10;
#X obj 170 8 cnv 15 320 20 empty empty empty 20 12 0 14 -233017 -66577
0;
#X obj 13 39 cnv 15 650 300 empty empty empty 20 12 0 14 -204786 -66577
0;
#X floatatom 58 173 0 0 0 0 - - -;
#X msg 29 89 disconnect;
#X obj 19 260 tgl 15 0 empty empty empty 17 7 0 10 -258113 -4034 -1
0 1;
#X obj 19 233 udpsend;
#X msg 19 60 connect localhost 9997;
#X msg 58 200 send \$1;
#X msg 38 118 send 0 1 2 3;
#X text 70 39 UDP;
#X text 177 9 Envío y recepción de bytes (0-255) vía red (UDP);
#X msg 48 146 0 1 2 3;
#X obj 349 55 udpreceive 9997;
#X obj 349 110 print udp;
#X floatatom 436 137 3 0 0 0 - - -;
#X obj 436 110 unpack 0 0 0 0 0;
#X floatatom 459 137 3 0 0 0 - - -;
#X floatatom 482 137 3 0 0 0 - - -;
#X floatatom 505 137 3 0 0 0 - - -;
#X floatatom 529 137 5 0 0 0 - - -;
#X text 567 137 <-- IP \, socket;
#X text 102 147 <- El prejifo 'send' es opcional;
#X text 121 117 <- Envía datos;
#X text 450 54 <-- Recibe los arrays de bytes;
#X text 450 64 por el puerto 9997;
#X text 77 231 <-- Envía los arrays de bytes;
#X text 77 241 al IP localhost \, puerto 9997;
#X connect 2 0 7 0;
#X connect 3 0 5 0;
#X connect 5 0 4 0;
#X connect 6 0 5 0;
#X connect 7 0 5 0;
#X connect 8 0 5 0;
#X connect 11 0 5 0;
#X connect 12 0 13 0;
#X connect 12 1 15 0;
#X connect 15 0 14 0;
#X connect 15 1 16 0;
#X connect 15 2 17 0;
#X connect 15 3 18 0;
#X connect 15 4 19 0;
