#N canvas 255 161 674 351 10;
#X obj 161 8 cnv 15 340 20 empty empty empty 20 12 0 14 -233017 -66577
0;
#X obj 13 39 cnv 15 650 300 empty empty empty 20 12 0 14 -204786 -66577
0;
#X floatatom 58 123 0 0 0 0 - - -;
#X msg 29 89 disconnect;
#X obj 19 238 tgl 15 0 empty empty empty 17 7 0 10 -258113 -4034 -1
0 1;
#X obj 19 211 udpsend;
#X msg 19 60 connect localhost 9997;
#X text 70 39 UDP;
#X obj 395 56 udpreceive 9997;
#X obj 58 177 packOSC;
#X msg 58 150 send /test \$1;
#X obj 395 111 print OSC;
#X obj 395 83 unpackOSC;
#X text 165 9 Envío y recepción de mensajes OSC simples vía red (UDP)
;
#X text 115 176 <-- Formatea el mensaje OSC;
#X text 115 186 como un array de bytes para;
#X text 115 196 ser enviado por UDP.;
#X text 464 81 <-- Formatea el array de bytes;
#X text 464 91 como mensaje OSC para ser usado;
#X text 464 101 a posteriori.;
#X connect 2 0 10 0;
#X connect 3 0 5 0;
#X connect 5 0 4 0;
#X connect 6 0 5 0;
#X connect 8 0 12 0;
#X connect 9 0 5 0;
#X connect 10 0 9 0;
#X connect 12 0 11 0;
