#N canvas 249 140 675 353 10;
#X obj 170 8 cnv 15 320 20 empty empty empty 20 12 0 14 -233017 -66577
0;
#X obj 13 39 cnv 15 650 300 empty empty empty 20 12 0 14 -204786 -66577
0;
#X floatatom 48 123 0 0 0 0 - - -;
#X msg 29 89 disconnect;
#X obj 19 298 tgl 15 0 empty empty empty 17 7 0 10 -258113 -4034 -1
0 1;
#X obj 19 271 udpsend;
#X msg 19 60 connect localhost 9997;
#X text 70 39 UDP;
#X obj 48 237 packOSC;
#X text 185 9 El patrón de dirección OSC (OSC address pattern);
#X msg 48 150 send /test/voz1 \$1;
#X msg 62 175 send /test/mute;
#X msg 67 204 send /otros 0 1 2;
#X obj 328 165 cnv 15 144 174 empty empty empty 20 12 0 14 -262144
-66577 0;
#X obj 331 47 udpreceive 9997;
#X obj 268 103 print OSC;
#X obj 331 72 unpackOSC;
#X obj 331 102 routeOSC /test;
#X obj 331 132 routeOSC /voz1 /mute;
#X obj 478 168 print OTROS;
#X obj 331 168 t f b;
#X obj 331 220 mtof;
#X obj 332 319 dac~;
#X obj 331 270 osc~;
#X obj 371 220 dbtorms;
#X msg 422 198 0;
#X msg 371 197 100;
#X obj 422 270 line~;
#X obj 331 295 *~;
#X obj 422 220 dbtorms;
#X msg 371 243 1 20;
#X msg 422 243 0 20;
#X text 477 111 <-- Encamina los mensajes OSC;
#X text 477 121 según el patrón de dirección.;
#X connect 2 0 10 0;
#X connect 3 0 5 0;
#X connect 5 0 4 0;
#X connect 6 0 5 0;
#X connect 8 0 5 0;
#X connect 10 0 8 0;
#X connect 11 0 8 0;
#X connect 12 0 8 0;
#X connect 14 0 16 0;
#X connect 16 0 15 0;
#X connect 16 0 17 0;
#X connect 17 0 18 0;
#X connect 18 0 20 0;
#X connect 18 1 25 0;
#X connect 18 2 19 0;
#X connect 20 0 21 0;
#X connect 20 1 26 0;
#X connect 21 0 23 0;
#X connect 23 0 28 0;
#X connect 24 0 30 0;
#X connect 25 0 29 0;
#X connect 26 0 24 0;
#X connect 27 0 28 1;
#X connect 28 0 22 0;
#X connect 28 0 22 1;
#X connect 29 0 31 0;
#X connect 30 0 27 0;
#X connect 31 0 27 0;
