#N canvas 549 160 675 352 10;
#X obj 170 8 cnv 15 320 20 empty empty empty 20 12 0 14 -233017 -66577
0;
#X obj 13 39 cnv 15 650 300 empty empty empty 20 12 0 14 -204786 -66577
0;
#X floatatom 36 128 0 0 0 0 - - -;
#X msg 27 84 disconnect;
#X obj 19 317 tgl 15 0 empty empty empty 17 7 0 10 -258113 -4034 -1
0 1;
#X obj 19 290 udpsend;
#X msg 19 60 connect localhost 9997;
#X text 70 39 UDP;
#X obj 36 257 packOSC;
#X msg 50 235 send /test/mute;
#X text 224 9 Dos o más argumentos por mensaje OSC;
#X msg 36 206 send /test/voz1 \$1 \$2;
#X obj 36 178 pack 0 0;
#X floatatom 106 128 0 0 100 0 - - -;
#X obj 106 150 t b f;
#X text 33 108 nota MIDI;
#X text 103 108 amp. (0-100);
#X obj 485 175 cnv 15 160 174 empty empty empty 20 12 0 14 -262144
-66577 0;
#X obj 488 47 udpreceive 9997;
#X obj 488 72 unpackOSC;
#X obj 488 105 routeOSC /test;
#X obj 488 139 routeOSC /voz1 /mute;
#X obj 488 224 mtof;
#X obj 489 323 dac~;
#X obj 488 274 osc~;
#X msg 596 202 0;
#X obj 596 274 line~;
#X obj 488 299 *~;
#X obj 596 224 dbtorms;
#X msg 596 247 0 20;
#X obj 488 178 unpack f f;
#X msg 545 247 \$1 20;
#X obj 545 202 sqrt;
#X obj 545 224 / 10;
#X text 177 177 <-- Es posible empaquetar dos o más argumentos -->
;
#X text 177 189 y enviarlos en un mismo mensaje OSC.;
#X text 177 201 En la recepción debemos desempaquetarlos.;
#X connect 2 0 12 0;
#X connect 3 0 5 0;
#X connect 5 0 4 0;
#X connect 6 0 5 0;
#X connect 8 0 5 0;
#X connect 9 0 8 0;
#X connect 11 0 8 0;
#X connect 12 0 11 0;
#X connect 13 0 14 0;
#X connect 14 0 12 0;
#X connect 14 1 12 1;
#X connect 18 0 19 0;
#X connect 19 0 20 0;
#X connect 20 0 21 0;
#X connect 21 0 30 0;
#X connect 21 1 25 0;
#X connect 22 0 24 0;
#X connect 24 0 27 0;
#X connect 25 0 28 0;
#X connect 26 0 27 1;
#X connect 27 0 23 0;
#X connect 27 0 23 1;
#X connect 28 0 29 0;
#X connect 29 0 26 0;
#X connect 30 0 22 0;
#X connect 30 1 32 0;
#X connect 31 0 26 0;
#X connect 32 0 33 0;
#X connect 33 0 31 0;
