#N canvas 503 134 675 371 10;
#X obj 150 8 cnv 15 364 20 empty empty empty 20 12 0 14 -233017 -66577
0;
#X obj 13 39 cnv 15 650 320 empty empty empty 20 12 0 14 -204786 -66577
0;
#X msg 27 80 disconnect;
#X obj 19 337 tgl 15 0 empty empty empty 17 7 0 10 -258113 -4034 -1
0 1;
#X obj 19 315 udpsend;
#X msg 19 60 connect localhost 9997;
#X text 70 39 UDP;
#X obj 40 293 packOSC;
#X msg 89 265 send /test/mute;
#X msg 40 148 ];
#X msg 163 148 [;
#X msg 71 148 /test/voz1 \$1;
#X msg 89 195 /test/voz2 \$1;
#X msg 114 241 /test/voz3 \$1;
#X floatatom 40 103 5 0 0 0 - - -;
#X obj 40 124 trigger b f f f b;
#X text 157 9 Envío y recepción de envoltorios (bundles) de mensajes
OSC;
#X obj 433 159 cnv 15 230 200 empty empty empty 20 12 0 14 -262144
-66577 0;
#X obj 441 47 udpreceive 9997;
#X obj 441 72 unpackOSC;
#X obj 441 97 routeOSC /test;
#X obj 441 229 mtof;
#X obj 441 342 dac~;
#X obj 441 253 osc~;
#X msg 609 221 0;
#X obj 440 318 *~;
#X obj 609 243 dbtorms;
#X msg 609 266 0 20;
#X msg 568 266 \$1 20;
#X obj 568 221 sqrt;
#X obj 568 243 / 10;
#X obj 609 293 line~;
#X obj 441 121 routeOSC /voz1 /voz2 /voz3 /mute;
#X obj 441 165 t f b;
#X obj 481 229 mtof;
#X obj 481 253 osc~;
#X obj 481 165 t f b;
#X obj 521 229 mtof;
#X obj 521 253 osc~;
#X obj 521 165 t f b;
#X msg 568 199 1;
#X text 171 123 <-- Es posible enviar y recibir "bundles";
#X text 196 135 de mensajes OSC. Para su envío se re-;
#X text 196 146 comienda el uso de un trigger inician-;
#X text 196 157 do con un [ \, luego los mensajes OSC \, y;
#X text 196 168 por último un ].;
#X text 78 101 nota fundamental;
#X obj 114 221 + 7;
#X obj 89 174 + 4;
#X connect 2 0 4 0;
#X connect 4 0 3 0;
#X connect 5 0 4 0;
#X connect 7 0 4 0;
#X connect 8 0 7 0;
#X connect 9 0 7 0;
#X connect 10 0 7 0;
#X connect 11 0 7 0;
#X connect 12 0 7 0;
#X connect 13 0 7 0;
#X connect 14 0 15 0;
#X connect 15 0 9 0;
#X connect 15 1 11 0;
#X connect 15 2 48 0;
#X connect 15 3 47 0;
#X connect 15 4 10 0;
#X connect 18 0 19 0;
#X connect 19 0 20 0;
#X connect 20 0 32 0;
#X connect 21 0 23 0;
#X connect 23 0 25 0;
#X connect 24 0 26 0;
#X connect 25 0 22 0;
#X connect 25 0 22 1;
#X connect 26 0 27 0;
#X connect 27 0 31 0;
#X connect 28 0 31 0;
#X connect 29 0 30 0;
#X connect 30 0 28 0;
#X connect 31 0 25 1;
#X connect 32 0 33 0;
#X connect 32 1 36 0;
#X connect 32 2 39 0;
#X connect 32 3 24 0;
#X connect 33 0 21 0;
#X connect 33 1 40 0;
#X connect 34 0 35 0;
#X connect 35 0 25 0;
#X connect 36 0 34 0;
#X connect 36 1 40 0;
#X connect 37 0 38 0;
#X connect 38 0 25 0;
#X connect 39 0 37 0;
#X connect 39 1 40 0;
#X connect 40 0 29 0;
#X connect 47 0 13 0;
#X connect 48 0 12 0;
