#N canvas 220 173 675 374 10;
#X obj 156 8 cnv 15 350 20 empty empty empty 20 12 0 14 -233017 -66577
0;
#X obj 13 39 cnv 15 650 320 empty empty empty 20 12 0 14 -261682 -66577
0;
#X text 70 39 TCP;
#X msg 27 80 disconnect;
#X obj 19 337 tgl 15 0 empty empty empty 17 7 0 10 -258113 -4034 -1
0 1;
#X msg 89 261 send /test/mute;
#X msg 40 148 ];
#X msg 163 148 [;
#X msg 71 148 /test/voz1 \$1;
#X msg 89 190 /test/voz2 \$1;
#X msg 114 230 /test/voz3 \$1;
#X floatatom 40 103 5 0 0 0 - - -;
#X obj 40 124 trigger b f f f b;
#X obj 19 310 tcpsend;
#X msg 19 60 connect localhost 9995;
#X obj 40 288 packOSCstream;
#X text 161 9 Envío y recepción de envoltorios de mensajes OSC vía
TCP;
#X obj 433 169 cnv 15 230 200 empty empty empty 20 12 0 14 -262144
-66577 0;
#X obj 445 235 mtof;
#X obj 445 343 dac~;
#X obj 445 259 osc~;
#X msg 613 225 0;
#X obj 444 319 *~;
#X obj 613 247 dbtorms;
#X msg 613 270 0 20;
#X msg 572 270 \$1 20;
#X obj 572 225 sqrt;
#X obj 572 247 / 10;
#X obj 613 297 line~;
#X obj 445 178 t f b;
#X obj 485 235 mtof;
#X obj 485 259 osc~;
#X obj 485 178 t f b;
#X obj 525 235 mtof;
#X obj 525 259 osc~;
#X obj 525 178 t f b;
#X obj 525 207 + 7;
#X obj 485 207 + 4;
#X msg 572 203 1;
#X obj 445 82 unpackOSCstream;
#X obj 445 57 tcpreceive 9995;
#X floatatom 532 104 5 0 0 0 - - -;
#X obj 445 124 routeOSC /test;
#X obj 445 146 routeOSC /voz1 /voz2 /voz3 /mute;
#X text 568 103 retardo en ms.;
#X text 129 286 <-- Hasta ahora hemos enviado y recibido mensajes;
#X text 154 298 OSC a través del protocolo de capa de trans-;
#X text 154 309 porte UDP \, pero si necesitamos enviarlos por;
#X text 154 320 TCP pordremos hacerlo mediante los objetos;
#X text 154 331 [packOSCstream] y [tcpsend]. En la recepción;
#X text 154 342 usaremos [unpackOSCstream] y [tcpreceive].;
#X connect 3 0 13 0;
#X connect 5 0 15 0;
#X connect 6 0 15 0;
#X connect 7 0 15 0;
#X connect 8 0 15 0;
#X connect 9 0 15 0;
#X connect 10 0 15 0;
#X connect 11 0 12 0;
#X connect 12 0 6 0;
#X connect 12 1 8 0;
#X connect 12 2 9 0;
#X connect 12 3 10 0;
#X connect 12 4 7 0;
#X connect 13 0 4 0;
#X connect 14 0 13 0;
#X connect 15 0 13 0;
#X connect 18 0 20 0;
#X connect 20 0 22 0;
#X connect 21 0 23 0;
#X connect 22 0 19 0;
#X connect 22 0 19 1;
#X connect 23 0 24 0;
#X connect 24 0 28 0;
#X connect 25 0 28 0;
#X connect 26 0 27 0;
#X connect 27 0 25 0;
#X connect 28 0 22 1;
#X connect 29 0 18 0;
#X connect 29 1 38 0;
#X connect 30 0 31 0;
#X connect 31 0 22 0;
#X connect 32 0 37 0;
#X connect 32 1 38 0;
#X connect 33 0 34 0;
#X connect 34 0 22 0;
#X connect 35 0 36 0;
#X connect 35 1 38 0;
#X connect 36 0 33 0;
#X connect 37 0 30 0;
#X connect 38 0 26 0;
#X connect 39 0 42 0;
#X connect 39 1 41 0;
#X connect 40 0 39 0;
#X connect 42 0 43 0;
#X connect 43 0 29 0;
#X connect 43 1 32 0;
#X connect 43 2 35 0;
#X connect 43 3 21 0;
